<svg width="20" height="20" viewBox="0 0 20 20" fill="none" xmlns="http://www.w3.org/2000/svg">
<mask id="mask0_13989_135" style="mask-type:alpha" maskUnits="userSpaceOnUse" x="0" y="0" width="20" height="20">
<rect width="20" height="20" fill="#D9D9D9"/>
</mask>
<g mask="url(#mask0_13989_135)">
<path d="M9.58333 18.3333C8.30556 18.3333 7.22222 17.8888 6.33333 17C5.44444 16.1111 5 15.0277 5 13.75V4.99996C5 4.08329 5.32639 3.29857 5.97917 2.64579C6.63194 1.99301 7.41667 1.66663 8.33333 1.66663C9.25 1.66663 10.0347 1.99301 10.6875 2.64579C11.3403 3.29857 11.6667 4.08329 11.6667 4.99996V11.6666H10.4167V4.99996C10.4167 4.41663 10.2153 3.92357 9.8125 3.52079C9.40972 3.11801 8.91667 2.91663 8.33333 2.91663C7.75 2.91663 7.25694 3.11801 6.85417 3.52079C6.45139 3.92357 6.25 4.41663 6.25 4.99996V13.75C6.25 14.6666 6.57639 15.4513 7.22917 16.1041C7.88194 16.7569 8.66667 17.0833 9.58333 17.0833C9.98611 17.0833 10.3647 17.0172 10.7192 16.885C11.0731 16.7533 11.3889 16.5694 11.6667 16.3333V17.8333C11.3472 17.9861 11.0139 18.1075 10.6667 18.1975C10.3194 18.288 9.95833 18.3333 9.58333 18.3333ZM13.3333 17.5V15H10.8333V13.3333H13.3333V10.8333H15V13.3333H17.5V15H15V17.5H13.3333ZM9.58333 13.75V15C9 15 8.50694 14.7986 8.10417 14.3958C7.70139 13.993 7.5 13.5 7.5 12.9166V4.99996H8.75V12.9166C8.75 13.1527 8.83 13.3505 8.99 13.51C9.14944 13.67 9.34722 13.75 9.58333 13.75ZM12.9167 9.16663V4.99996H14.1667V9.16663H12.9167Z" fill="#15123F"/>
</g>
</svg>
