<svg width="62" height="62" viewBox="0 0 62 62" fill="none" xmlns="http://www.w3.org/2000/svg">
<mask id="mask0_13988_127" style="mask-type: alpha" maskUnits="userSpaceOnUse" x="0" y="0" width="62" height="62">
<rect width="62" height="62" fill="#D9D9D9"></rect>
</mask>
<g mask="url('#mask0_13988_127')">
<path d="M12.9167 46.1125C15.2417 43.8306 17.9438 42.0326 21.0232 40.7185C24.1008 39.4062 27.4264 38.75 31 38.75C34.5736 38.75 37.9001 39.4062 40.9794 40.7185C44.057 42.0326 46.7583 43.8306 49.0833 46.1125V12.9167H12.9167V46.1125ZM31 33.5833C33.4972 33.5833 35.6285 32.7007 37.3937 30.9354C39.159 29.1701 40.0417 27.0389 40.0417 24.5417C40.0417 22.0444 39.159 19.9132 37.3937 18.1479C35.6285 16.3826 33.4972 15.5 31 15.5C28.5028 15.5 26.3715 16.3826 24.6062 18.1479C22.841 19.9132 21.9583 22.0444 21.9583 24.5417C21.9583 27.0389 22.841 29.1701 24.6062 30.9354C26.3715 32.7007 28.5028 33.5833 31 33.5833ZM12.9167 54.25C11.4958 54.25 10.2791 53.7445 9.26642 52.7336C8.25547 51.7209 7.75 50.5042 7.75 49.0833V12.9167C7.75 11.4958 8.25547 10.2791 9.26642 9.26642C10.2791 8.25547 11.4958 7.75 12.9167 7.75H49.0833C50.5042 7.75 51.7209 8.25547 52.7336 9.26642C53.7445 10.2791 54.25 11.4958 54.25 12.9167V49.0833C54.25 50.5042 53.7445 51.7209 52.7336 52.7336C51.7209 53.7445 50.5042 54.25 49.0833 54.25H12.9167ZM18.0833 49.0833H43.9167V48.4375C42.1083 46.9306 40.1063 45.8008 37.9104 45.0482C35.7146 44.2938 33.4111 43.9167 31 43.9167C28.5889 43.9167 26.2854 44.2938 24.0896 45.0482C21.8937 45.8008 19.8917 46.9306 18.0833 48.4375V49.0833ZM31 28.4167C29.9236 28.4167 29.0091 28.0395 28.2565 27.2852C27.5022 26.5326 27.125 25.6181 27.125 24.5417C27.125 23.4653 27.5022 22.5508 28.2565 21.7982C29.0091 21.0438 29.9236 20.6667 31 20.6667C32.0764 20.6667 32.9909 21.0438 33.7435 21.7982C34.4978 22.5508 34.875 23.4653 34.875 24.5417C34.875 25.6181 34.4978 26.5326 33.7435 27.2852C32.9909 28.0395 32.0764 28.4167 31 28.4167Z" fill="#73C9B7"></path>
</g>
</svg>
