<svg width="62" height="62" fill="none" xmlns="http://www.w3.org/2000/svg"><mask id="mask0_13988_127" style="mask-type:alpha" maskUnits="userSpaceOnUse" x="0" y="0" width="62" height="62"><path fill="#D9D9D9" d="M0 0h62v62H0z"/></mask><g mask="url('#mask0_13988_127')"><path d="M12.917 46.112c2.325-2.281 5.027-4.08 8.106-5.394 3.078-1.312 6.403-1.968 9.977-1.968 3.574 0 6.9.656 9.98 1.968 3.077 1.315 5.778 3.113 8.103 5.394V12.917H12.917v33.195ZM31 33.584c2.497 0 4.629-.882 6.394-2.648 1.765-1.765 2.648-3.896 2.648-6.393 0-2.498-.883-4.629-2.648-6.394C35.629 16.383 33.497 15.5 31 15.5c-2.497 0-4.628.883-6.394 2.648-1.765 1.765-2.648 3.896-2.648 6.394 0 2.497.883 4.628 2.648 6.393 1.765 1.766 3.897 2.648 6.394 2.648ZM12.917 54.25c-1.421 0-2.638-.505-3.65-1.516-1.012-1.013-1.517-2.23-1.517-3.65V12.916c0-1.421.505-2.638 1.516-3.65 1.013-1.012 2.23-1.517 3.65-1.517h36.167c1.421 0 2.638.505 3.65 1.516 1.012 1.013 1.517 2.23 1.517 3.65v36.167c0 1.421-.505 2.638-1.516 3.65-1.013 1.012-2.23 1.517-3.65 1.517H12.916Zm5.166-5.167h25.834v-.645a18.869 18.869 0 0 0-6.007-3.39c-2.195-.754-4.499-1.131-6.91-1.131-2.411 0-4.715.377-6.91 1.131a18.869 18.869 0 0 0-6.007 3.39v.645ZM31 28.417c-1.076 0-1.99-.378-2.744-1.132-.754-.752-1.131-1.667-1.131-2.743 0-1.077.377-1.991 1.131-2.744.753-.754 1.668-1.131 2.744-1.131 1.076 0 1.99.377 2.743 1.131.755.753 1.132 1.667 1.132 2.744 0 1.076-.377 1.99-1.132 2.743-.752.755-1.667 1.132-2.743 1.132Z" fill="#73C9B7"/></g></svg>