<svg width="20" height="20" fill="none" xmlns="http://www.w3.org/2000/svg"><mask id="mask0_13989_135" style="mask-type:alpha" maskUnits="userSpaceOnUse" x="0" y="0" width="20" height="20"><path fill="#D9D9D9" d="M0 0h20v20H0z"/></mask><g mask="url('#mask0_13989_135')"><path d="M9.583 18.333c-1.277 0-2.36-.444-3.25-1.333C5.444 16.111 5 15.028 5 13.75V5c0-.917.326-1.701.98-2.354a3.21 3.21 0 0 1 2.353-.98 3.21 3.21 0 0 1 2.354.98A3.21 3.21 0 0 1 11.668 5v6.667h-1.25V5c0-.583-.202-1.076-.604-1.48a2.012 2.012 0 0 0-1.48-.603c-.583 0-1.076.201-1.479.604A2.012 2.012 0 0 0 6.25 5v8.75c0 .917.326 1.701.98 2.354a3.21 3.21 0 0 0 2.353.98c.403 0 .782-.067 1.136-.199.354-.132.67-.316.948-.552v1.5c-.32.153-.653.275-1 .365-.348.09-.709.135-1.084.135Zm3.75-.833V15h-2.5v-1.667h2.5v-2.5H15v2.5h2.5V15H15v2.5h-1.667Zm-3.75-3.75V15a2.012 2.012 0 0 1-1.479-.604 2.012 2.012 0 0 1-.604-1.48V5h1.25v7.917c0 .236.08.434.24.593.16.16.357.24.593.24Zm3.334-4.583V5h1.25v4.167h-1.25Z" fill="#15123F"/></g></svg>